<svg width="159" height="139" viewBox="0 0 159 139" fill="none" xmlns="http://www.w3.org/2000/svg">
<circle cx="118" cy="40" r="40" fill="#D9D9D9"/>
<path d="M157.949 115.787C160.442 135.552 143.538 130.33 123.812 132.819C104.086 135.307 89.0083 144.564 86.5148 124.799C84.0213 105.034 97.991 86.9945 117.717 84.5059C137.443 82.0174 155.455 96.0224 157.949 115.787Z" fill="#D9D9D9"/>
<circle cx="118" cy="40" r="4" fill="black"/>
<path d="M0 33C0 26.3726 5.37258 21 12 21H88C94.6274 21 100 26.3726 100 33C100 39.6274 94.6274 45 88 45H12C5.37258 45 0 39.6274 0 33Z" fill="#D9D9D9"/>
<path d="M5.64023 68.45C4.68453 61.8919 9.22622 55.8007 15.7844 54.845L90.99 43.8856C97.5482 42.9299 103.639 47.4716 104.595 54.0297C105.551 60.5879 101.009 66.679 94.4509 67.6347L19.2452 78.5942C12.6871 79.5499 6.59592 75.0082 5.64023 68.45Z" fill="#D9D9D9"/>
</svg>
